<mxfile host="app.diagrams.net" agent="Mozilla/5.0 (Windows NT 10.0; Win64; x64) AppleWebKit/537.36 (KHTML, like Gecko) Chrome/134.0.0.0 Safari/537.36" version="26.2.9">
  <diagram id="C5RBs43oDa-KdzZeNtuy" name="Page-1">
    <mxGraphModel dx="1428" dy="785" grid="1" gridSize="10" guides="1" tooltips="1" connect="1" arrows="1" fold="1" page="1" pageScale="1" pageWidth="827" pageHeight="1169" math="0" shadow="0">
      <root>
        <mxCell id="WIyWlLk6GJQsqaUBKTNV-0" />
        <mxCell id="WIyWlLk6GJQsqaUBKTNV-1" parent="WIyWlLk6GJQsqaUBKTNV-0" />
        <mxCell id="fAO3g5o6FAeCS5hQroCI-54" value="" style="edgeStyle=orthogonalEdgeStyle;rounded=0;orthogonalLoop=1;jettySize=auto;html=1;entryX=1;entryY=0.5;entryDx=0;entryDy=0;entryPerimeter=0;" parent="WIyWlLk6GJQsqaUBKTNV-1" source="fAO3g5o6FAeCS5hQroCI-58" target="fAO3g5o6FAeCS5hQroCI-74" edge="1">
          <mxGeometry relative="1" as="geometry">
            <mxPoint x="731" y="1080" as="targetPoint" />
            <Array as="points">
              <mxPoint x="741" y="307" />
              <mxPoint x="741" y="994" />
            </Array>
          </mxGeometry>
        </mxCell>
        <mxCell id="fAO3g5o6FAeCS5hQroCI-55" value="否" style="edgeLabel;html=1;align=center;verticalAlign=middle;resizable=0;points=[];" parent="fAO3g5o6FAeCS5hQroCI-54" vertex="1" connectable="0">
          <mxGeometry x="-0.3877" relative="1" as="geometry">
            <mxPoint as="offset" />
          </mxGeometry>
        </mxCell>
        <mxCell id="fAO3g5o6FAeCS5hQroCI-56" value="" style="edgeStyle=orthogonalEdgeStyle;rounded=0;orthogonalLoop=1;jettySize=auto;html=1;entryX=0.5;entryY=0;entryDx=0;entryDy=0;" parent="WIyWlLk6GJQsqaUBKTNV-1" source="fAO3g5o6FAeCS5hQroCI-58" target="fAO3g5o6FAeCS5hQroCI-66" edge="1">
          <mxGeometry relative="1" as="geometry">
            <mxPoint x="424" y="413.5" as="targetPoint" />
          </mxGeometry>
        </mxCell>
        <mxCell id="fAO3g5o6FAeCS5hQroCI-57" value="是" style="edgeLabel;html=1;align=center;verticalAlign=middle;resizable=0;points=[];" parent="fAO3g5o6FAeCS5hQroCI-56" vertex="1" connectable="0">
          <mxGeometry x="-0.1655" relative="1" as="geometry">
            <mxPoint as="offset" />
          </mxGeometry>
        </mxCell>
        <mxCell id="fAO3g5o6FAeCS5hQroCI-58" value="字段数量&amp;gt;2" style="rhombus;whiteSpace=wrap;html=1;shadow=0;fontFamily=Helvetica;fontSize=12;align=center;strokeWidth=1;spacing=6;spacingTop=-4;" parent="WIyWlLk6GJQsqaUBKTNV-1" vertex="1">
          <mxGeometry x="379" y="273" width="90" height="67" as="geometry" />
        </mxCell>
        <mxCell id="fAO3g5o6FAeCS5hQroCI-59" value="" style="edgeStyle=orthogonalEdgeStyle;rounded=0;orthogonalLoop=1;jettySize=auto;html=1;" parent="WIyWlLk6GJQsqaUBKTNV-1" source="fAO3g5o6FAeCS5hQroCI-60" target="fAO3g5o6FAeCS5hQroCI-62" edge="1">
          <mxGeometry relative="1" as="geometry" />
        </mxCell>
        <mxCell id="fAO3g5o6FAeCS5hQroCI-60" value="开始" style="strokeWidth=2;html=1;shape=mxgraph.flowchart.terminator;whiteSpace=wrap;" parent="WIyWlLk6GJQsqaUBKTNV-1" vertex="1">
          <mxGeometry x="394" y="40" width="60" height="40" as="geometry" />
        </mxCell>
        <mxCell id="fAO3g5o6FAeCS5hQroCI-61" value="" style="edgeStyle=orthogonalEdgeStyle;rounded=0;orthogonalLoop=1;jettySize=auto;html=1;" parent="WIyWlLk6GJQsqaUBKTNV-1" source="fAO3g5o6FAeCS5hQroCI-62" target="fAO3g5o6FAeCS5hQroCI-64" edge="1">
          <mxGeometry relative="1" as="geometry" />
        </mxCell>
        <mxCell id="fAO3g5o6FAeCS5hQroCI-62" value="根据换行符把文本转成String[]数组" style="rounded=1;whiteSpace=wrap;html=1;fontSize=12;glass=0;strokeWidth=1;shadow=0;" parent="WIyWlLk6GJQsqaUBKTNV-1" vertex="1">
          <mxGeometry x="354" y="121" width="140" height="40" as="geometry" />
        </mxCell>
        <mxCell id="fAO3g5o6FAeCS5hQroCI-63" value="" style="edgeStyle=orthogonalEdgeStyle;rounded=0;orthogonalLoop=1;jettySize=auto;html=1;" parent="WIyWlLk6GJQsqaUBKTNV-1" source="fAO3g5o6FAeCS5hQroCI-64" target="fAO3g5o6FAeCS5hQroCI-58" edge="1">
          <mxGeometry relative="1" as="geometry" />
        </mxCell>
        <mxCell id="fAO3g5o6FAeCS5hQroCI-64" value="&lt;div data-docx-has-block-data=&quot;false&quot; data-lark-html-role=&quot;root&quot; data-page-id=&quot;Aed7douATo9B6cx0R7Rc3emsnXd&quot;&gt;&lt;div class=&quot;old-record-id-WZW5dhf2ooNl1qxLG0lcdsG0n3e&quot;&gt;以空格（“ ”）或半角逗号（,）或全角逗号（，）作为分隔，把每一行拆分字段&lt;/div&gt;&lt;/div&gt;&lt;span class=&quot;lark-record-clipboard&quot; data-lark-record-format=&quot;docx/text&quot; data-lark-record-data=&quot;{&amp;quot;rootId&amp;quot;:&amp;quot;Aed7douATo9B6cx0R7Rc3emsnXd&amp;quot;,&amp;quot;text&amp;quot;:{&amp;quot;initialAttributedTexts&amp;quot;:{&amp;quot;text&amp;quot;:{&amp;quot;0&amp;quot;:&amp;quot;以空格（“ ”）或半角逗号（,）或全角逗号（，）作为分隔，拆分元素&amp;quot;},&amp;quot;attribs&amp;quot;:{&amp;quot;0&amp;quot;:&amp;quot;*0+x&amp;quot;}},&amp;quot;apool&amp;quot;:{&amp;quot;numToAttrib&amp;quot;:{&amp;quot;0&amp;quot;:[&amp;quot;author&amp;quot;,&amp;quot;7403194829083705347&amp;quot;]},&amp;quot;nextNum&amp;quot;:1}},&amp;quot;type&amp;quot;:&amp;quot;text&amp;quot;,&amp;quot;referenceRecordMap&amp;quot;:{},&amp;quot;extra&amp;quot;:{&amp;quot;channel&amp;quot;:&amp;quot;saas&amp;quot;,&amp;quot;isEqualBlockSelection&amp;quot;:false,&amp;quot;pasteRandomId&amp;quot;:&amp;quot;011ff010-0866-426b-a94f-de44540d47f7&amp;quot;,&amp;quot;mention_page_title&amp;quot;:{},&amp;quot;external_mention_url&amp;quot;:{}},&amp;quot;isKeepQuoteContainer&amp;quot;:false,&amp;quot;isFromCode&amp;quot;:false,&amp;quot;selection&amp;quot;:[{&amp;quot;id&amp;quot;:1293,&amp;quot;type&amp;quot;:&amp;quot;text&amp;quot;,&amp;quot;selection&amp;quot;:{&amp;quot;start&amp;quot;:4,&amp;quot;end&amp;quot;:37},&amp;quot;recordId&amp;quot;:&amp;quot;WZW5dhf2ooNl1qxLG0lcdsG0n3e&amp;quot;}],&amp;quot;payloadMap&amp;quot;:{},&amp;quot;isCut&amp;quot;:false}&quot;&gt;&lt;/span&gt;" style="whiteSpace=wrap;html=1;rounded=1;glass=0;strokeWidth=1;shadow=0;" parent="WIyWlLk6GJQsqaUBKTNV-1" vertex="1">
          <mxGeometry x="349" y="190" width="150" height="46" as="geometry" />
        </mxCell>
        <mxCell id="fAO3g5o6FAeCS5hQroCI-65" value="" style="edgeStyle=orthogonalEdgeStyle;rounded=0;orthogonalLoop=1;jettySize=auto;html=1;" parent="WIyWlLk6GJQsqaUBKTNV-1" source="fAO3g5o6FAeCS5hQroCI-66" target="fAO3g5o6FAeCS5hQroCI-68" edge="1">
          <mxGeometry relative="1" as="geometry" />
        </mxCell>
        <mxCell id="fAO3g5o6FAeCS5hQroCI-66" value="取数组第一个字段作为债券简称,并去掉【债券简称】中的&quot;（一般）&quot; &quot;（专项）&quot;" style="whiteSpace=wrap;html=1;shadow=0;strokeWidth=1;spacing=6;spacingTop=-4;" parent="WIyWlLk6GJQsqaUBKTNV-1" vertex="1">
          <mxGeometry x="311.25" y="380" width="225.5" height="43" as="geometry" />
        </mxCell>
        <mxCell id="fAO3g5o6FAeCS5hQroCI-67" value="" style="edgeStyle=orthogonalEdgeStyle;rounded=0;orthogonalLoop=1;jettySize=auto;html=1;" parent="WIyWlLk6GJQsqaUBKTNV-1" source="fAO3g5o6FAeCS5hQroCI-68" target="fAO3g5o6FAeCS5hQroCI-80" edge="1">
          <mxGeometry relative="1" as="geometry" />
        </mxCell>
        <mxCell id="fAO3g5o6FAeCS5hQroCI-68" value="从第3个字段开始循环处理，根据字段的值包含相应的关键字，把对应的值赋给相应的字段" style="whiteSpace=wrap;html=1;shadow=0;strokeWidth=1;spacing=6;spacingTop=-4;" parent="WIyWlLk6GJQsqaUBKTNV-1" vertex="1">
          <mxGeometry x="315.5" y="460" width="217" height="53" as="geometry" />
        </mxCell>
        <mxCell id="fAO3g5o6FAeCS5hQroCI-69" value="" style="edgeStyle=orthogonalEdgeStyle;rounded=0;orthogonalLoop=1;jettySize=auto;html=1;" parent="WIyWlLk6GJQsqaUBKTNV-1" source="fAO3g5o6FAeCS5hQroCI-73" target="fAO3g5o6FAeCS5hQroCI-76" edge="1">
          <mxGeometry relative="1" as="geometry" />
        </mxCell>
        <mxCell id="fAO3g5o6FAeCS5hQroCI-70" value="包含" style="edgeLabel;html=1;align=center;verticalAlign=middle;resizable=0;points=[];" parent="fAO3g5o6FAeCS5hQroCI-69" vertex="1" connectable="0">
          <mxGeometry x="-0.18" relative="1" as="geometry">
            <mxPoint as="offset" />
          </mxGeometry>
        </mxCell>
        <mxCell id="fAO3g5o6FAeCS5hQroCI-71" value="" style="edgeStyle=orthogonalEdgeStyle;rounded=0;orthogonalLoop=1;jettySize=auto;html=1;" parent="WIyWlLk6GJQsqaUBKTNV-1" source="fAO3g5o6FAeCS5hQroCI-73" target="fAO3g5o6FAeCS5hQroCI-78" edge="1">
          <mxGeometry relative="1" as="geometry" />
        </mxCell>
        <mxCell id="fAO3g5o6FAeCS5hQroCI-72" value="不包含" style="edgeLabel;html=1;align=center;verticalAlign=middle;resizable=0;points=[];" parent="fAO3g5o6FAeCS5hQroCI-71" vertex="1" connectable="0">
          <mxGeometry x="0.2471" y="-3" relative="1" as="geometry">
            <mxPoint as="offset" />
          </mxGeometry>
        </mxCell>
        <mxCell id="fAO3g5o6FAeCS5hQroCI-73" value="债券简称包含增或续" style="rhombus;whiteSpace=wrap;html=1;shadow=0;strokeWidth=1;spacing=6;spacingTop=-4;" parent="WIyWlLk6GJQsqaUBKTNV-1" vertex="1">
          <mxGeometry x="359" y="740" width="130" height="100" as="geometry" />
        </mxCell>
        <mxCell id="fAO3g5o6FAeCS5hQroCI-74" value="结束" style="strokeWidth=2;html=1;shape=mxgraph.flowchart.terminator;whiteSpace=wrap;" parent="WIyWlLk6GJQsqaUBKTNV-1" vertex="1">
          <mxGeometry x="384" y="972" width="80" height="43.5" as="geometry" />
        </mxCell>
        <mxCell id="fAO3g5o6FAeCS5hQroCI-75" value="" style="edgeStyle=orthogonalEdgeStyle;rounded=0;orthogonalLoop=1;jettySize=auto;html=1;" parent="WIyWlLk6GJQsqaUBKTNV-1" source="fAO3g5o6FAeCS5hQroCI-76" target="fAO3g5o6FAeCS5hQroCI-74" edge="1">
          <mxGeometry relative="1" as="geometry" />
        </mxCell>
        <mxCell id="fAO3g5o6FAeCS5hQroCI-76" value="走增发、续发流程" style="whiteSpace=wrap;html=1;shadow=0;strokeWidth=1;spacing=6;spacingTop=-4;" parent="WIyWlLk6GJQsqaUBKTNV-1" vertex="1">
          <mxGeometry x="364" y="880" width="120" height="60" as="geometry" />
        </mxCell>
        <mxCell id="fAO3g5o6FAeCS5hQroCI-77" value="" style="edgeStyle=orthogonalEdgeStyle;rounded=0;orthogonalLoop=1;jettySize=auto;html=1;entryX=1;entryY=0.5;entryDx=0;entryDy=0;entryPerimeter=0;exitX=0.5;exitY=1;exitDx=0;exitDy=0;" parent="WIyWlLk6GJQsqaUBKTNV-1" source="fAO3g5o6FAeCS5hQroCI-78" target="fAO3g5o6FAeCS5hQroCI-74" edge="1">
          <mxGeometry relative="1" as="geometry">
            <mxPoint x="624" y="900" as="targetPoint" />
          </mxGeometry>
        </mxCell>
        <mxCell id="fAO3g5o6FAeCS5hQroCI-78" value="走新发债流程" style="whiteSpace=wrap;html=1;shadow=0;strokeWidth=1;spacing=6;spacingTop=-4;" parent="WIyWlLk6GJQsqaUBKTNV-1" vertex="1">
          <mxGeometry x="564" y="760" width="120" height="60" as="geometry" />
        </mxCell>
        <mxCell id="fAO3g5o6FAeCS5hQroCI-79" value="" style="edgeStyle=orthogonalEdgeStyle;rounded=0;orthogonalLoop=1;jettySize=auto;html=1;" parent="WIyWlLk6GJQsqaUBKTNV-1" source="fAO3g5o6FAeCS5hQroCI-80" target="fAO3g5o6FAeCS5hQroCI-82" edge="1">
          <mxGeometry relative="1" as="geometry" />
        </mxCell>
        <mxCell id="fAO3g5o6FAeCS5hQroCI-80" value="&lt;div&gt;marginalRate：[边际利率]&lt;/div&gt;&lt;div&gt;weightedRate：[加权利率]&lt;/div&gt;&lt;div&gt;marginalMult：[边际倍数，边际]&lt;/div&gt;&lt;div&gt;compliantSubscriptionMult：[全场倍数，全场]&lt;/div&gt;" style="whiteSpace=wrap;html=1;shadow=0;strokeWidth=1;spacing=6;spacingTop=-4;" parent="WIyWlLk6GJQsqaUBKTNV-1" vertex="1">
          <mxGeometry x="323.75" y="543" width="200.5" height="74" as="geometry" />
        </mxCell>
        <mxCell id="fAO3g5o6FAeCS5hQroCI-81" value="" style="edgeStyle=orthogonalEdgeStyle;rounded=0;orthogonalLoop=1;jettySize=auto;html=1;" parent="WIyWlLk6GJQsqaUBKTNV-1" source="fAO3g5o6FAeCS5hQroCI-82" target="fAO3g5o6FAeCS5hQroCI-73" edge="1">
          <mxGeometry relative="1" as="geometry" />
        </mxCell>
        <mxCell id="fAO3g5o6FAeCS5hQroCI-82" value="&lt;div&gt;&lt;span style=&quot;background-color: transparent;&quot;&gt;票面利率=加权利率&lt;/span&gt;&lt;br&gt;&lt;/div&gt;" style="whiteSpace=wrap;html=1;shadow=0;strokeWidth=1;spacing=6;spacingTop=-4;" parent="WIyWlLk6GJQsqaUBKTNV-1" vertex="1">
          <mxGeometry x="324.25" y="643" width="200" height="60" as="geometry" />
        </mxCell>
      </root>
    </mxGraphModel>
  </diagram>
</mxfile>
